<mxfile host="app.diagrams.net" agent="Mozilla/5.0 (Windows NT 10.0; Win64; x64) AppleWebKit/537.36 (KHTML, like Gecko) Chrome/130.0.0.0 Safari/537.36" version="24.8.3">
  <diagram name="Сторінка-1" id="-uZzCej_qfEs4Ln2rpi7">
    <mxGraphModel grid="1" page="1" gridSize="10" guides="1" tooltips="1" connect="1" arrows="1" fold="1" pageScale="1" pageWidth="827" pageHeight="1169" math="0" shadow="0">
      <root>
        <mxCell id="0" />
        <mxCell id="1" parent="0" />
        <mxCell id="YYUErQ3BfwDuZXydYh25-6" value="" style="edgeStyle=orthogonalEdgeStyle;rounded=0;orthogonalLoop=1;jettySize=auto;html=1;" edge="1" parent="1" source="YYUErQ3BfwDuZXydYh25-1" target="YYUErQ3BfwDuZXydYh25-5">
          <mxGeometry relative="1" as="geometry" />
        </mxCell>
        <mxCell id="YYUErQ3BfwDuZXydYh25-1" value="Початок програми" style="ellipse;whiteSpace=wrap;html=1;" vertex="1" parent="1">
          <mxGeometry x="60" y="40" width="130" height="50" as="geometry" />
        </mxCell>
        <mxCell id="YYUErQ3BfwDuZXydYh25-4" value="Main" style="text;html=1;align=center;verticalAlign=middle;whiteSpace=wrap;rounded=0;" vertex="1" parent="1">
          <mxGeometry x="95" width="60" height="30" as="geometry" />
        </mxCell>
        <mxCell id="YYUErQ3BfwDuZXydYh25-14" value="" style="edgeStyle=orthogonalEdgeStyle;rounded=0;orthogonalLoop=1;jettySize=auto;html=1;" edge="1" parent="1" source="YYUErQ3BfwDuZXydYh25-5" target="YYUErQ3BfwDuZXydYh25-13">
          <mxGeometry relative="1" as="geometry" />
        </mxCell>
        <mxCell id="YYUErQ3BfwDuZXydYh25-5" value="min від 5 аргуметів" style="shape=process;whiteSpace=wrap;html=1;backgroundOutline=1;" vertex="1" parent="1">
          <mxGeometry x="65" y="130" width="120" height="60" as="geometry" />
        </mxCell>
        <mxCell id="YYUErQ3BfwDuZXydYh25-7" value="Min" style="text;html=1;align=center;verticalAlign=middle;whiteSpace=wrap;rounded=0;" vertex="1" parent="1">
          <mxGeometry x="340" width="60" height="30" as="geometry" />
        </mxCell>
        <mxCell id="YYUErQ3BfwDuZXydYh25-10" value="" style="edgeStyle=orthogonalEdgeStyle;rounded=0;orthogonalLoop=1;jettySize=auto;html=1;" edge="1" parent="1" source="YYUErQ3BfwDuZXydYh25-8" target="YYUErQ3BfwDuZXydYh25-9">
          <mxGeometry relative="1" as="geometry" />
        </mxCell>
        <mxCell id="YYUErQ3BfwDuZXydYh25-8" value="min(1,...,n)" style="ellipse;whiteSpace=wrap;html=1;" vertex="1" parent="1">
          <mxGeometry x="310" y="40" width="120" height="40" as="geometry" />
        </mxCell>
        <mxCell id="YYUErQ3BfwDuZXydYh25-12" value="" style="edgeStyle=orthogonalEdgeStyle;rounded=0;orthogonalLoop=1;jettySize=auto;html=1;" edge="1" parent="1" source="YYUErQ3BfwDuZXydYh25-9" target="YYUErQ3BfwDuZXydYh25-11">
          <mxGeometry relative="1" as="geometry" />
        </mxCell>
        <mxCell id="YYUErQ3BfwDuZXydYh25-9" value="Створення масиву з усіма n" style="whiteSpace=wrap;html=1;" vertex="1" parent="1">
          <mxGeometry x="310" y="120" width="120" height="60" as="geometry" />
        </mxCell>
        <mxCell id="YYUErQ3BfwDuZXydYh25-20" style="edgeStyle=orthogonalEdgeStyle;rounded=0;orthogonalLoop=1;jettySize=auto;html=1;entryX=0.5;entryY=0;entryDx=0;entryDy=0;" edge="1" parent="1" source="YYUErQ3BfwDuZXydYh25-11" target="YYUErQ3BfwDuZXydYh25-19">
          <mxGeometry relative="1" as="geometry" />
        </mxCell>
        <mxCell id="YYUErQ3BfwDuZXydYh25-11" value="Пошук найменшого n" style="whiteSpace=wrap;html=1;" vertex="1" parent="1">
          <mxGeometry x="310" y="220" width="120" height="60" as="geometry" />
        </mxCell>
        <mxCell id="YYUErQ3BfwDuZXydYh25-16" value="" style="edgeStyle=orthogonalEdgeStyle;rounded=0;orthogonalLoop=1;jettySize=auto;html=1;" edge="1" parent="1" source="YYUErQ3BfwDuZXydYh25-13" target="YYUErQ3BfwDuZXydYh25-15">
          <mxGeometry relative="1" as="geometry" />
        </mxCell>
        <mxCell id="YYUErQ3BfwDuZXydYh25-13" value="min від 10 аргуметів" style="shape=process;whiteSpace=wrap;html=1;backgroundOutline=1;" vertex="1" parent="1">
          <mxGeometry x="65" y="230" width="120" height="60" as="geometry" />
        </mxCell>
        <mxCell id="YYUErQ3BfwDuZXydYh25-18" value="" style="edgeStyle=orthogonalEdgeStyle;rounded=0;orthogonalLoop=1;jettySize=auto;html=1;" edge="1" parent="1" source="YYUErQ3BfwDuZXydYh25-15" target="YYUErQ3BfwDuZXydYh25-17">
          <mxGeometry relative="1" as="geometry" />
        </mxCell>
        <mxCell id="YYUErQ3BfwDuZXydYh25-15" value="min від 12 аргуметів" style="shape=process;whiteSpace=wrap;html=1;backgroundOutline=1;" vertex="1" parent="1">
          <mxGeometry x="65" y="330" width="120" height="60" as="geometry" />
        </mxCell>
        <mxCell id="YYUErQ3BfwDuZXydYh25-22" style="edgeStyle=orthogonalEdgeStyle;rounded=0;orthogonalLoop=1;jettySize=auto;html=1;entryX=0.5;entryY=0;entryDx=0;entryDy=0;" edge="1" parent="1" source="YYUErQ3BfwDuZXydYh25-17" target="YYUErQ3BfwDuZXydYh25-21">
          <mxGeometry relative="1" as="geometry">
            <Array as="points">
              <mxPoint x="125" y="560" />
            </Array>
          </mxGeometry>
        </mxCell>
        <mxCell id="YYUErQ3BfwDuZXydYh25-17" value="Вивід кожного min" style="shape=parallelogram;perimeter=parallelogramPerimeter;whiteSpace=wrap;html=1;fixedSize=1;" vertex="1" parent="1">
          <mxGeometry x="61.25" y="440" width="127.5" height="60" as="geometry" />
        </mxCell>
        <mxCell id="YYUErQ3BfwDuZXydYh25-19" value="Повернення n" style="ellipse;whiteSpace=wrap;html=1;" vertex="1" parent="1">
          <mxGeometry x="305" y="320" width="130" height="50" as="geometry" />
        </mxCell>
        <mxCell id="YYUErQ3BfwDuZXydYh25-21" value="Кінець програми" style="ellipse;whiteSpace=wrap;html=1;" vertex="1" parent="1">
          <mxGeometry x="65" y="560" width="120" height="50" as="geometry" />
        </mxCell>
      </root>
    </mxGraphModel>
  </diagram>
</mxfile>
